<svg width="40" height="30" viewBox="0 0 40 30" fill="none" xmlns="http://www.w3.org/2000/svg">
<path d="M38.5714 0H1.42857C1.04969 0 0.686328 0.175595 0.418419 0.488156C0.15051 0.800716 0 1.22464 0 1.66667V28.3333C0 28.7754 0.15051 29.1993 0.418419 29.5118C0.686328 29.8244 1.04969 30 1.42857 30H38.5714C38.9503 30 39.3137 29.8244 39.5816 29.5118C39.8495 29.1993 40 28.7754 40 28.3333V1.66667C40 1.22464 39.8495 0.800716 39.5816 0.488156C39.3137 0.175595 38.9503 0 38.5714 0ZM37.1429 26.6667H2.85714V3.33333H37.1429V26.6667Z" fill="#424242"/>
<path d="M20 16.6667C20.157 16.6673 20.3104 16.7223 20.4405 16.8248C20.5707 16.9272 20.6719 17.0724 20.7312 17.242C20.7906 17.4116 20.8054 17.598 20.7738 17.7774C20.7422 17.9569 20.6657 18.1214 20.5539 18.25C20.4637 18.357 20.3522 18.4363 20.2294 18.4809C20.1065 18.5256 19.9761 18.5341 19.8498 18.5057C19.7235 18.4774 19.6051 18.413 19.5052 18.3184C19.4054 18.2238 19.3271 18.1019 19.2773 17.9635C19.2004 17.7591 19.089 17.5749 18.9499 17.4217C18.8108 17.2684 18.6467 17.1494 18.4674 17.0716C18.2881 16.9938 18.0972 16.9588 17.9061 16.9686C17.7149 16.9785 17.5275 17.0331 17.3547 17.1291C17.182 17.2251 17.0276 17.3607 16.9007 17.5276C16.7737 17.6946 16.6768 17.8896 16.6156 18.1011C16.5545 18.3126 16.5304 18.5363 16.5448 18.7589C16.5592 18.9815 16.6117 19.1984 16.6993 19.3968C16.8798 19.8441 17.1247 20.252 17.4233 20.6028C17.7526 20.9882 18.1424 21.2961 18.5715 21.5095V21.6667C18.5715 22.1087 18.722 22.5326 18.9899 22.8452C19.2578 23.1577 19.6211 23.3333 20 23.3333C20.3789 23.3333 20.7423 23.1577 21.0102 22.8452C21.2781 22.5326 21.4286 22.1087 21.4286 21.6667V21.5097C22.2015 21.1241 22.8367 20.4393 23.2269 19.5707C23.6172 18.7021 23.7387 17.7031 23.5708 16.7422C23.4029 15.7813 22.9559 14.9174 22.3054 14.2963C21.6549 13.6753 20.8406 13.3352 20 13.3333C19.8587 13.333 19.72 13.2885 19.5984 13.2044C19.4769 13.1202 19.3769 12.9995 19.309 12.8549C19.241 12.7103 19.2076 12.5471 19.2122 12.3823C19.2168 12.2175 19.2592 12.0571 19.335 11.918C19.4109 11.7788 19.5173 11.6659 19.6433 11.5912C19.7693 11.5164 19.9101 11.4824 20.0512 11.4928C20.1922 11.5032 20.3283 11.5576 20.4452 11.6503C20.5621 11.743 20.6555 11.8706 20.7157 12.0198C20.7916 12.2237 20.9016 12.4079 21.0393 12.5615C21.1771 12.715 21.3397 12.8349 21.5178 12.914C21.6958 12.9931 21.8856 13.0299 22.076 13.0222C22.2664 13.0144 22.4536 12.9623 22.6265 12.8689C22.7994 12.7756 22.9545 12.6428 23.0827 12.4784C23.211 12.314 23.3098 12.1214 23.3732 11.9118C23.4367 11.7023 23.4636 11.48 23.4524 11.2581C23.4411 11.0362 23.3919 10.8192 23.3077 10.6198C22.9225 9.67902 22.2534 8.93697 21.4286 8.53566V8.33332C21.4286 7.8913 21.2781 7.46737 21.0102 7.15481C20.7423 6.84225 20.3789 6.66666 20 6.66666C19.6211 6.66666 19.2578 6.84225 18.9899 7.15481C18.722 7.46737 18.5715 7.8913 18.5715 8.33332V8.49032C17.7986 8.87586 17.1634 9.56071 16.7731 10.4293C16.3828 11.2978 16.2614 12.2969 16.4293 13.2578C16.5972 14.2187 17.0441 15.0826 17.6946 15.7036C18.3452 16.3247 19.1595 16.6648 20 16.6667Z" fill="#424242"/>
<path d="M5.71422 8.33333H8.57136C8.95024 8.33333 9.3136 8.15774 9.58151 7.84518C9.84942 7.53262 9.99993 7.10869 9.99993 6.66667C9.99993 6.22464 9.84942 5.80072 9.58151 5.48816C9.3136 5.1756 8.95024 5 8.57136 5H5.71422C5.33534 5 4.97197 5.1756 4.70406 5.48816C4.43615 5.80072 4.28564 6.22464 4.28564 6.66667C4.28564 7.10869 4.43615 7.53262 4.70406 7.84518C4.97197 8.15774 5.33534 8.33333 5.71422 8.33333Z" fill="#424242"/>
<path d="M31.4286 25H34.2857C34.6646 25 35.028 24.8244 35.2959 24.5118C35.5638 24.1993 35.7143 23.7754 35.7143 23.3333C35.7143 22.8913 35.5638 22.4674 35.2959 22.1548C35.028 21.8422 34.6646 21.6667 34.2857 21.6667H31.4286C31.0497 21.6667 30.6863 21.8422 30.4184 22.1548C30.1505 22.4674 30 22.8913 30 23.3333C30 23.7754 30.1505 24.1993 30.4184 24.5118C30.6863 24.8244 31.0497 25 31.4286 25Z" fill="#424242"/>
</svg>
