<svg width="30" height="30" viewBox="0 0 30 30" fill="none" xmlns="http://www.w3.org/2000/svg">
<path d="M25.7051 0.00346484C25.1409 0.00972734 24.5793 0.207981 24.1386 0.659624L11.5033 13.6074L11.469 13.6425C11.1175 13.9857 11.0515 14.235 10.9087 14.5799C10.7601 14.9388 10.6231 15.3722 10.5085 15.8571C10.2793 16.827 10.1432 18.0164 10.3484 19.2317C10.4257 19.6838 10.7991 20.0664 11.2403 20.1456C12.4263 20.3558 13.587 20.2165 14.5335 19.9816C15.0067 19.8642 15.4181 19.7238 15.7684 19.5715C16.1048 19.4252 16.3486 19.3453 16.6832 18.9857C16.697 18.9707 16.7033 18.9665 16.7175 18.9504L24.1958 11.2872C24.6435 10.8806 24.6656 10.0788 24.241 9.6469C23.8165 9.21504 23.0341 9.24363 22.6407 9.70538L15.1852 17.3451C15.2086 17.3091 15.0742 17.4265 14.9108 17.4974C14.693 17.5922 14.3827 17.7001 14.0189 17.7904C13.5464 17.9076 13.0012 17.9614 12.4638 17.9661C12.4692 17.4181 12.5215 16.866 12.6353 16.3843C12.7234 16.0116 12.8402 15.6819 12.9326 15.4586C12.9851 15.3319 13.0315 15.2549 13.0355 15.236L23.4182 4.58488L25.5222 6.7526L24.8361 7.45563C24.429 7.87283 24.429 8.632 24.8361 9.0492C25.2432 9.46639 25.9841 9.46639 26.3912 9.0492L29.3528 6.00267C30.3618 4.97043 30.1093 3.33298 29.1584 2.35857C28.6705 1.85863 28.1827 1.35867 27.6948 0.858728C27.2193 0.371509 26.589 0.0610783 25.9453 0.00337328C25.8648 -0.00382672 25.7858 0.00262328 25.7051 0.00337328V0.00346484ZM25.6937 2.25319C25.686 2.26114 25.8727 2.17885 26.1397 2.45239C26.6272 2.95663 27.1212 3.45423 27.6147 3.95223C27.8818 4.22587 27.8006 4.41791 27.8091 4.40919L27.0773 5.15912L24.9733 2.9914L25.6937 2.25319ZM3.6591 5.25285C1.65094 5.25285 0 6.94461 0 9.00242V26.2505C0 28.3082 1.65094 30 3.6591 30H20.4909C22.4991 30 24.15 28.3082 24.15 26.2505V15.3767C24.1582 14.7824 23.6323 14.2358 23.0523 14.2358C22.4723 14.2358 21.9464 14.7824 21.9546 15.3767V26.2505C21.9546 27.1008 21.3208 27.7503 20.4909 27.7503H3.6591C2.82925 27.7503 2.19546 27.1008 2.19546 26.2505V9.00242C2.19546 8.15205 2.82925 7.5026 3.6591 7.5026H15.3682C15.9481 7.511 16.4816 6.97208 16.4816 6.37774C16.4816 5.78339 15.9481 5.24445 15.3682 5.25285H3.6591Z" fill="black"/>
</svg>
