<svg width="40" height="40" viewBox="0 0 40 40" fill="none" xmlns="http://www.w3.org/2000/svg">
<path d="M25.893 30.6498C25.893 30.1212 25.6917 29.6141 25.3333 29.2403C24.975 28.8665 24.4889 28.6565 23.9821 28.6565C23.4753 28.6565 22.9893 28.8665 22.6309 29.2403C22.2726 29.6141 22.0712 30.1212 22.0712 30.6498C22.0692 32.072 21.5266 33.4353 20.5624 34.4407C19.5982 35.4462 18.2911 36.0117 16.9278 36.0133H8.96583C7.60239 36.0119 6.29514 35.4464 5.3308 34.441C4.36647 33.4355 3.82377 32.0721 3.82175 30.6498V9.35017C3.82377 7.92799 4.36638 6.5647 5.33058 5.55926C6.29478 4.55381 7.60186 3.98829 8.96519 3.98671H16.9272C18.2909 3.98829 19.5984 4.55418 20.5627 5.5602C21.527 6.56622 22.0693 7.93019 22.0706 9.35282C22.0706 9.88149 22.2719 10.3885 22.6303 10.7623C22.9887 11.1362 23.4747 11.3462 23.9815 11.3462C24.4883 11.3462 24.9743 11.1362 25.3327 10.7623C25.691 10.3885 25.8924 9.88149 25.8924 9.35282C25.8898 6.87334 24.9446 4.49615 23.264 2.74276C21.5834 0.989376 19.3047 0.00298996 16.9278 0H8.96583C6.58916 0.00263694 4.31052 0.988503 2.62972 2.74135C0.948924 4.4942 0.00320331 6.87091 0 9.35017V30.6498C0.00337112 33.1289 0.949059 35.5054 2.62968 37.2582C4.31031 39.011 6.58868 39.997 8.96519 40H16.9272C19.3038 39.9972 21.5823 39.0113 23.2631 37.2585C24.9439 35.5056 25.8896 33.129 25.893 30.6498Z" fill="#424242"/>
<path d="M28.8893 12.2206C28.7313 12.424 28.6133 12.6579 28.542 12.9089C28.4707 13.16 28.4474 13.4232 28.4736 13.6836C28.4998 13.944 28.575 14.1964 28.6947 14.4265C28.8144 14.6566 28.9765 14.8598 29.1715 15.0246L32.7009 18.0066H12.9463C12.4395 18.0066 11.9534 18.2167 11.5951 18.5905C11.2367 18.9643 11.0354 19.4713 11.0354 20C11.0354 20.5287 11.2367 21.0357 11.5951 21.4095C11.9534 21.7833 12.4395 21.9934 12.9463 21.9934H32.7009L29.1728 24.9754C28.9737 25.1387 28.8077 25.3417 28.6844 25.5725C28.5612 25.8033 28.4832 26.0574 28.4549 26.3199C28.4266 26.5825 28.4487 26.8483 28.5197 27.1019C28.5908 27.3555 28.7095 27.5918 28.8689 27.7971C29.0283 28.0024 29.2253 28.1726 29.4483 28.2978C29.6713 28.423 29.916 28.5007 30.1681 28.5264C30.4201 28.5521 30.6746 28.5252 30.9166 28.4474C31.1587 28.3696 31.3835 28.2423 31.5779 28.0731L39.3004 21.5488C39.3157 21.5356 39.3265 21.5196 39.3418 21.5057C39.4075 21.4465 39.4692 21.3828 39.5266 21.315C39.5482 21.289 39.5718 21.2651 39.5903 21.2379C39.6608 21.1467 39.7232 21.0491 39.7769 20.9462C39.7877 20.9256 39.7941 20.9037 39.8043 20.8797C39.8394 20.8101 39.8702 20.7382 39.8966 20.6645C39.9017 20.6498 39.9036 20.6346 39.9081 20.6193C39.9215 20.5781 39.9297 20.5369 39.9399 20.495C39.9587 20.422 39.9732 20.3479 39.9833 20.2731C39.989 20.2292 39.9941 20.1854 39.9966 20.1402C40.0011 20.0636 40.0011 19.9869 39.9966 19.9103C39.9966 19.8698 39.9966 19.8286 39.9909 19.788C39.9801 19.6758 39.9603 19.5646 39.9317 19.4558C39.9253 19.4319 39.9145 19.4093 39.9068 19.3854C39.8795 19.2962 39.8461 19.2091 39.8068 19.1249C39.7903 19.089 39.7705 19.0545 39.7514 19.0193C39.7117 18.9447 39.6674 18.8728 39.6189 18.804C39.6055 18.7854 39.5966 18.7641 39.5826 18.7462C39.5686 18.7282 39.5629 18.7269 39.5539 18.7163C39.4885 18.6354 39.4169 18.56 39.3399 18.491C39.3272 18.4797 39.3164 18.4658 39.3036 18.4552H39.3004L31.5767 11.9269C31.183 11.5942 30.6787 11.4382 30.1747 11.4933C29.6708 11.5484 29.2084 11.81 28.8893 12.2206Z" fill="#424242"/>
</svg>
