<svg width="141" height="83" viewBox="0 0 141 83" fill="none" xmlns="http://www.w3.org/2000/svg">
<path d="M9.76 24.24C10.64 24.24 11.36 24.1733 11.92 24.04C12.5067 23.88 12.9733 23.68 13.32 23.44C13.6667 23.1733 13.9067 22.8667 14.04 22.52C14.1733 22.1733 14.24 21.7867 14.24 21.36C14.24 20.4533 13.8133 19.7067 12.96 19.12C12.1067 18.5067 10.64 17.8533 8.56 17.16C7.65333 16.84 6.74667 16.48 5.84 16.08C4.93333 15.6533 4.12 15.1333 3.4 14.52C2.68 13.88 2.09333 13.12 1.64 12.24C1.18667 11.3333 0.96 10.24 0.96 8.96C0.96 7.68 1.2 6.53333 1.68 5.52C2.16 4.48 2.84 3.6 3.72 2.88C4.6 2.16 5.66667 1.61333 6.92 1.24C8.17333 0.839999 9.58667 0.639998 11.16 0.639998C13.0267 0.639998 14.64 0.839999 16 1.24C17.36 1.64 18.48 2.08 19.36 2.56L17.56 7.48C16.7867 7.08 15.92 6.73333 14.96 6.44C14.0267 6.12 12.8933 5.96 11.56 5.96C10.0667 5.96 8.98667 6.17333 8.32 6.6C7.68 7 7.36 7.62667 7.36 8.48C7.36 8.98667 7.48 9.41333 7.72 9.76C7.96 10.1067 8.29333 10.4267 8.72 10.72C9.17333 10.9867 9.68 11.24 10.24 11.48C10.8267 11.6933 11.4667 11.92 12.16 12.16C13.6 12.6933 14.8533 13.2267 15.92 13.76C16.9867 14.2667 17.8667 14.8667 18.56 15.56C19.28 16.2533 19.8133 17.0667 20.16 18C20.5067 18.9333 20.68 20.0667 20.68 21.4C20.68 23.9867 19.7733 26 17.96 27.44C16.1467 28.8533 13.4133 29.56 9.76 29.56C8.53333 29.56 7.42667 29.48 6.44 29.32C5.45333 29.1867 4.57333 29.0133 3.8 28.8C3.05333 28.5867 2.4 28.36 1.84 28.12C1.30667 27.88 0.853333 27.6533 0.48 27.44L2.24 22.48C3.06667 22.9333 4.08 23.3467 5.28 23.72C6.50667 24.0667 8 24.24 9.76 24.24ZM33.59 24.84C34.1767 24.84 34.7367 24.8267 35.27 24.8C35.8033 24.7733 36.23 24.7333 36.55 24.68V20.16C36.31 20.1067 35.95 20.0533 35.47 20C34.99 19.9467 34.55 19.92 34.15 19.92C33.59 19.92 33.0567 19.96 32.55 20.04C32.07 20.0933 31.6433 20.2133 31.27 20.4C30.8967 20.5867 30.6033 20.84 30.39 21.16C30.1767 21.48 30.07 21.88 30.07 22.36C30.07 23.2933 30.3767 23.9467 30.99 24.32C31.63 24.6667 32.4967 24.84 33.59 24.84ZM33.11 7.4C34.87 7.4 36.3367 7.6 37.51 8C38.6833 8.4 39.6167 8.97333 40.31 9.72C41.03 10.4667 41.5367 11.3733 41.83 12.44C42.1233 13.5067 42.27 14.6933 42.27 16V28.4C41.4167 28.5867 40.23 28.8 38.71 29.04C37.19 29.3067 35.35 29.44 33.19 29.44C31.83 29.44 30.59 29.32 29.47 29.08C28.3767 28.84 27.43 28.4533 26.63 27.92C25.83 27.36 25.2167 26.64 24.79 25.76C24.3633 24.88 24.15 23.8 24.15 22.52C24.15 21.2933 24.39 20.2533 24.87 19.4C25.3767 18.5467 26.0433 17.8667 26.87 17.36C27.6967 16.8533 28.6433 16.4933 29.71 16.28C30.7767 16.04 31.8833 15.92 33.03 15.92C33.8033 15.92 34.4833 15.96 35.07 16.04C35.6833 16.0933 36.1767 16.1733 36.55 16.28V15.72C36.55 14.7067 36.2433 13.8933 35.63 13.28C35.0167 12.6667 33.95 12.36 32.43 12.36C31.4167 12.36 30.4167 12.44 29.43 12.6C28.4433 12.7333 27.59 12.9333 26.87 13.2L26.11 8.4C26.4567 8.29333 26.8833 8.18667 27.39 8.08C27.9233 7.94667 28.4967 7.84 29.11 7.76C29.7233 7.65333 30.3633 7.57333 31.03 7.52C31.7233 7.44 32.4167 7.4 33.11 7.4ZM52.8716 29C51.5116 26.3333 50.1249 23.2133 48.7116 19.64C47.3249 16.0667 46.0049 12.1733 44.7516 7.96H51.0716C51.3382 9 51.6449 10.1333 51.9916 11.36C52.3649 12.56 52.7382 13.7867 53.1116 15.04C53.5116 16.2667 53.8982 17.4667 54.2716 18.64C54.6716 19.8133 55.0582 20.88 55.4316 21.84C55.7782 20.88 56.1516 19.8133 56.5516 18.64C56.9516 17.4667 57.3382 16.2667 57.7116 15.04C58.1116 13.7867 58.4849 12.56 58.8316 11.36C59.2049 10.1333 59.5249 9 59.7916 7.96H65.9516C64.6982 12.1733 63.3649 16.0667 61.9516 19.64C60.5649 23.2133 59.1916 26.3333 57.8316 29H52.8716ZM67.5969 18.64C67.5969 16.7733 67.8769 15.1467 68.4369 13.76C69.0235 12.3467 69.7835 11.1733 70.7169 10.24C71.6502 9.30667 72.7169 8.6 73.9169 8.12C75.1435 7.64 76.3969 7.4 77.6769 7.4C80.6635 7.4 83.0235 8.32 84.7569 10.16C86.4902 11.9733 87.3569 14.6533 87.3569 18.2C87.3569 18.5467 87.3435 18.9333 87.3169 19.36C87.2902 19.76 87.2635 20.12 87.2369 20.44H73.7169C73.8502 21.6667 74.4235 22.64 75.4369 23.36C76.4502 24.08 77.8102 24.44 79.5169 24.44C80.6102 24.44 81.6769 24.3467 82.7169 24.16C83.7835 23.9467 84.6502 23.6933 85.3169 23.4L86.1169 28.24C85.7969 28.4 85.3702 28.56 84.8369 28.72C84.3035 28.88 83.7035 29.0133 83.0369 29.12C82.3969 29.2533 81.7035 29.36 80.9569 29.44C80.2102 29.52 79.4635 29.56 78.7169 29.56C76.8235 29.56 75.1702 29.28 73.7569 28.72C72.3702 28.16 71.2102 27.4 70.2769 26.44C69.3702 25.4533 68.6902 24.2933 68.2369 22.96C67.8102 21.6267 67.5969 20.1867 67.5969 18.64ZM81.5969 16.36C81.5702 15.8533 81.4769 15.36 81.3169 14.88C81.1835 14.4 80.9569 13.9733 80.6369 13.6C80.3435 13.2267 79.9569 12.92 79.4769 12.68C79.0235 12.44 78.4502 12.32 77.7569 12.32C77.0902 12.32 76.5169 12.44 76.0369 12.68C75.5569 12.8933 75.1569 13.1867 74.8369 13.56C74.5169 13.9333 74.2635 14.3733 74.0769 14.88C73.9169 15.36 73.7969 15.8533 73.7169 16.36H81.5969ZM81.1769 64.32C81.1769 66.16 81.5902 67.64 82.4169 68.76C83.2435 69.88 84.4702 70.44 86.0969 70.44C86.6302 70.44 87.1235 70.4267 87.5769 70.4C88.0302 70.3467 88.4035 70.2933 88.6969 70.24V59.4C88.3235 59.16 87.8302 58.96 87.2169 58.8C86.6302 58.64 86.0302 58.56 85.4169 58.56C82.5902 58.56 81.1769 60.48 81.1769 64.32ZM94.6569 74.32C94.1235 74.48 93.5102 74.64 92.8169 74.8C92.1235 74.9333 91.3902 75.0533 90.6169 75.16C89.8702 75.2667 89.0969 75.3467 88.2969 75.4C87.5235 75.48 86.7769 75.52 86.0569 75.52C84.3235 75.52 82.7769 75.2667 81.4169 74.76C80.0569 74.2533 78.9102 73.5333 77.9769 72.6C77.0435 71.64 76.3235 70.4933 75.8169 69.16C75.3369 67.8 75.0969 66.28 75.0969 64.6C75.0969 62.8933 75.3102 61.36 75.7369 60C76.1635 58.6133 76.7769 57.44 77.5769 56.48C78.3769 55.52 79.3502 54.7867 80.4969 54.28C81.6702 53.7733 83.0035 53.52 84.4969 53.52C85.3235 53.52 86.0569 53.6 86.6969 53.76C87.3635 53.92 88.0302 54.1467 88.6969 54.44V44.92L94.6569 43.96V74.32ZM108.278 70.84C108.864 70.84 109.424 70.8267 109.958 70.8C110.491 70.7733 110.918 70.7333 111.238 70.68V66.16C110.998 66.1067 110.638 66.0533 110.158 66C109.678 65.9467 109.238 65.92 108.838 65.92C108.278 65.92 107.744 65.96 107.238 66.04C106.758 66.0933 106.331 66.2133 105.958 66.4C105.584 66.5867 105.291 66.84 105.078 67.16C104.864 67.48 104.758 67.88 104.758 68.36C104.758 69.2933 105.064 69.9467 105.678 70.32C106.318 70.6667 107.184 70.84 108.278 70.84ZM107.798 53.4C109.558 53.4 111.024 53.6 112.198 54C113.371 54.4 114.304 54.9733 114.998 55.72C115.718 56.4667 116.224 57.3733 116.518 58.44C116.811 59.5067 116.958 60.6933 116.958 62V74.4C116.104 74.5867 114.918 74.8 113.398 75.04C111.878 75.3067 110.038 75.44 107.878 75.44C106.518 75.44 105.278 75.32 104.158 75.08C103.064 74.84 102.118 74.4533 101.318 73.92C100.518 73.36 99.9042 72.64 99.4775 71.76C99.0508 70.88 98.8375 69.8 98.8375 68.52C98.8375 67.2933 99.0775 66.2533 99.5575 65.4C100.064 64.5467 100.731 63.8667 101.558 63.36C102.384 62.8533 103.331 62.4933 104.398 62.28C105.464 62.04 106.571 61.92 107.717 61.92C108.491 61.92 109.171 61.96 109.758 62.04C110.371 62.0933 110.864 62.1733 111.238 62.28V61.72C111.238 60.7067 110.931 59.8933 110.318 59.28C109.704 58.6667 108.638 58.36 107.118 58.36C106.104 58.36 105.104 58.44 104.118 58.6C103.131 58.7333 102.278 58.9333 101.558 59.2L100.798 54.4C101.144 54.2933 101.571 54.1867 102.078 54.08C102.611 53.9467 103.184 53.84 103.798 53.76C104.411 53.6533 105.051 53.5733 105.718 53.52C106.411 53.44 107.104 53.4 107.798 53.4ZM140.519 53.96C139.319 58.0133 138.066 61.8133 136.759 65.36C135.452 68.9067 134.026 72.3467 132.479 75.68C131.919 76.88 131.359 77.8933 130.799 78.72C130.239 79.5733 129.626 80.2667 128.959 80.8C128.292 81.36 127.532 81.76 126.679 82C125.852 82.2667 124.879 82.4 123.759 82.4C122.826 82.4 121.959 82.3067 121.159 82.12C120.386 81.96 119.746 81.7733 119.239 81.56L120.279 76.8C120.892 77.0133 121.439 77.16 121.919 77.24C122.399 77.32 122.906 77.36 123.439 77.36C124.506 77.36 125.319 77.0667 125.879 76.48C126.466 75.92 126.959 75.1333 127.359 74.12C125.999 71.4533 124.639 68.4667 123.279 65.16C121.919 61.8267 120.639 58.0933 119.439 53.96H125.759C126.026 55 126.332 56.1333 126.679 57.36C127.052 58.56 127.439 59.7867 127.839 61.04C128.239 62.2667 128.639 63.4667 129.039 64.64C129.466 65.8133 129.866 66.88 130.239 67.84C130.586 66.88 130.946 65.8133 131.319 64.64C131.692 63.4667 132.052 62.2667 132.399 61.04C132.772 59.7867 133.119 58.56 133.439 57.36C133.786 56.1333 134.092 55 134.359 53.96H140.519Z" fill="#31E981"/>
<path d="M1.6 48.72L7.56 47.76V53.96H14.72V58.92H7.56V66.32C7.56 67.5733 7.77333 68.5733 8.2 69.32C8.65333 70.0667 9.54667 70.44 10.88 70.44C11.52 70.44 12.1733 70.3867 12.84 70.28C13.5333 70.1467 14.16 69.9733 14.72 69.76L15.56 74.4C14.84 74.6933 14.04 74.9467 13.16 75.16C12.28 75.3733 11.2 75.48 9.92 75.48C8.29333 75.48 6.94667 75.2667 5.88 74.84C4.81333 74.3867 3.96 73.7733 3.32 73C2.68 72.2 2.22667 71.24 1.96 70.12C1.72 69 1.6 67.76 1.6 66.4V48.72ZM19.5734 75V44.92L25.5334 43.96V54.04C25.9334 53.9067 26.4401 53.7867 27.0534 53.68C27.6934 53.5467 28.3068 53.48 28.8934 53.48C30.6001 53.48 32.0134 53.72 33.1334 54.2C34.2801 54.6533 35.1868 55.3067 35.8534 56.16C36.5468 57.0133 37.0268 58.0267 37.2934 59.2C37.5868 60.3733 37.7334 61.68 37.7334 63.12V75H31.7734V63.84C31.7734 61.92 31.5201 60.56 31.0134 59.76C30.5334 58.96 29.6268 58.56 28.2934 58.56C27.7601 58.56 27.2534 58.6133 26.7734 58.72C26.3201 58.8 25.9068 58.8933 25.5334 59V75H19.5734ZM42.1281 64.64C42.1281 62.7733 42.4081 61.1467 42.9681 59.76C43.5548 58.3467 44.3148 57.1733 45.2481 56.24C46.1815 55.3067 47.2481 54.6 48.4481 54.12C49.6748 53.64 50.9281 53.4 52.2081 53.4C55.1948 53.4 57.5548 54.32 59.2881 56.16C61.0215 57.9733 61.8881 60.6533 61.8881 64.2C61.8881 64.5467 61.8748 64.9333 61.8481 65.36C61.8215 65.76 61.7948 66.12 61.7681 66.44H48.2481C48.3815 67.6667 48.9548 68.64 49.9681 69.36C50.9815 70.08 52.3415 70.44 54.0481 70.44C55.1415 70.44 56.2081 70.3467 57.2481 70.16C58.3148 69.9467 59.1815 69.6933 59.8481 69.4L60.6481 74.24C60.3281 74.4 59.9015 74.56 59.3681 74.72C58.8348 74.88 58.2348 75.0133 57.5681 75.12C56.9281 75.2533 56.2348 75.36 55.4881 75.44C54.7415 75.52 53.9948 75.56 53.2481 75.56C51.3548 75.56 49.7015 75.28 48.2881 74.72C46.9015 74.16 45.7415 73.4 44.8081 72.44C43.9015 71.4533 43.2215 70.2933 42.7681 68.96C42.3415 67.6267 42.1281 66.1867 42.1281 64.64ZM56.1281 62.36C56.1015 61.8533 56.0081 61.36 55.8481 60.88C55.7148 60.4 55.4881 59.9733 55.1681 59.6C54.8748 59.2267 54.4881 58.92 54.0081 58.68C53.5548 58.44 52.9815 58.32 52.2881 58.32C51.6215 58.32 51.0481 58.44 50.5681 58.68C50.0881 58.8933 49.6881 59.1867 49.3681 59.56C49.0481 59.9333 48.7948 60.3733 48.6081 60.88C48.4481 61.36 48.3281 61.8533 48.2481 62.36H56.1281Z" fill="black"/>
</svg>
