<svg width="40" height="40" viewBox="0 0 40 40" fill="none" xmlns="http://www.w3.org/2000/svg">
<path d="M23.9999 6.49321H23.7996C23.6449 6.47031 23.4969 6.42 23.3642 6.34522C23.2315 6.27043 23.1168 6.17268 23.0269 6.05769C22.9369 5.9427 22.8734 5.81279 22.8402 5.67555C22.807 5.53832 22.8047 5.39653 22.8335 5.25849C22.8705 5.10231 22.8902 4.94324 22.8924 4.7836C22.8924 4.08388 22.5821 3.41282 22.0297 2.91804C21.4773 2.42327 20.7281 2.1453 19.9469 2.1453C19.1657 2.1453 18.4165 2.42327 17.8641 2.91804C17.3117 3.41282 17.0014 4.08388 17.0014 4.7836C17.0035 4.94324 17.0233 5.10231 17.0603 5.25849C17.1134 5.53838 17.0402 5.8257 16.8568 6.05726C16.6734 6.28881 16.3949 6.44563 16.0824 6.49321C15.7699 6.54079 15.4491 6.47524 15.1906 6.31097C14.9321 6.14671 14.757 5.89718 14.7039 5.6173C14.5576 4.93348 14.5818 4.22917 14.7747 3.5547C14.9676 2.88023 15.3244 2.25223 15.8196 1.7156C16.3149 1.17896 16.9364 0.746917 17.6396 0.450348C18.3429 0.153778 19.1106 0 19.888 0C20.6653 0 21.433 0.153778 22.1363 0.450348C22.8396 0.746917 23.461 1.17896 23.9563 1.7156C24.4516 2.25223 24.8084 2.88023 25.0012 3.5547C25.1941 4.22917 25.2183 4.93348 25.0721 5.6173C25.0281 5.84953 24.8987 6.06192 24.7044 6.22065C24.5101 6.37938 24.2621 6.47532 23.9999 6.49321Z" fill="#424242"/>
<path d="M38.8218 35.6833H1.1782C0.865724 35.6833 0.566043 35.5721 0.345087 35.3742C0.124131 35.1763 0 34.9079 0 34.628V28.1589C0 27.879 0.124131 27.6106 0.345087 27.4127C0.566043 27.2147 0.865724 27.1036 1.1782 27.1036H38.8218C39.1343 27.1036 39.434 27.2147 39.6549 27.4127C39.8759 27.6106 40 27.879 40 28.1589V34.628C40 34.9079 39.8759 35.1763 39.6549 35.3742C39.434 35.5721 39.1343 35.6833 38.8218 35.6833ZM2.41532 33.5727H37.6436V29.2142H2.35641L2.41532 33.5727Z" fill="#424242"/>
<path d="M19.8997 39.9995C18.5977 39.9996 17.3485 39.5377 16.4256 38.715C15.5027 37.8923 14.9811 36.7757 14.9749 35.6094C14.9752 35.1802 15.0467 34.7535 15.1869 34.343C15.2604 34.1167 15.4163 33.919 15.6298 33.7813C15.8434 33.6436 16.1022 33.5738 16.3651 33.5832H23.505C23.768 33.5738 24.0268 33.6436 24.2403 33.7813C24.4539 33.919 24.6098 34.1167 24.6832 34.343C24.8235 34.7535 24.895 35.1802 24.8953 35.6094C24.8923 36.1923 24.7603 36.7689 24.507 37.3058C24.2537 37.8427 23.8841 38.3293 23.4196 38.7375C22.9551 39.1458 22.4048 39.4675 21.8007 39.6841C21.1965 39.9007 20.5504 40.0079 19.8997 39.9995ZM17.3313 35.6939C17.3753 36.2757 17.6645 36.8209 18.1402 37.219C18.6159 37.6172 19.2427 37.8387 19.8939 37.8387C20.545 37.8387 21.1718 37.6172 21.6475 37.219C22.1232 36.8209 22.4124 36.2757 22.4564 35.6939H17.3313Z" fill="#424242"/>
<path d="M38.8218 29.2142H1.1782C0.865724 29.2142 0.566043 29.103 0.345087 28.9051C0.124131 28.7072 0 28.4387 0 28.1589C0 27.879 0.124131 27.6105 0.345087 27.4126C0.566043 27.2147 0.865724 27.1035 1.1782 27.1035C1.78799 27.112 2.39352 27.0113 2.95933 26.8075C3.52513 26.6036 4.03982 26.3007 4.47324 25.9164C4.90667 25.5321 5.25011 25.0742 5.48344 24.5695C5.71678 24.0648 5.83531 23.5235 5.83211 22.9772V16.5082C5.83949 13.6973 6.88296 10.9674 8.80042 8.74229C10.7179 6.51721 13.402 4.92155 16.4359 4.20316C16.8719 4.09763 17.3314 4.02375 17.8144 3.94988C18.8781 3.79986 19.9579 3.76443 21.0309 3.84435C21.3726 3.84435 21.7143 3.90767 22.0442 3.93933H22.1384C22.5037 3.99209 22.8807 4.06597 23.2459 4.13984C23.7905 4.25099 24.3259 4.39556 24.8483 4.57252L25.3903 4.76247L25.8733 4.95243L26.3918 5.17405C28.7386 6.31561 30.6957 8.00598 32.0547 10.0651C33.4137 12.1242 34.1237 14.475 34.109 16.867V22.9878C34.1104 23.5369 34.2341 24.0802 34.4729 24.5859C34.7118 25.0915 35.0608 25.5495 35.4998 25.9328C35.9387 26.3161 36.4586 26.6171 37.029 26.8181C37.5995 27.0191 38.209 27.1162 38.8218 27.1035C39.1343 27.1035 39.434 27.2147 39.6549 27.4126C39.8759 27.6105 40 27.879 40 28.1589C40 28.4387 39.8759 28.7072 39.6549 28.9051C39.434 29.103 39.1343 29.2142 38.8218 29.2142ZM6.45655 27.1035H33.5552C32.4079 25.9737 31.766 24.5045 31.7526 22.9772V16.867C31.7626 14.8622 31.1651 12.8926 30.024 11.1679C28.8828 9.44328 27.2406 8.02826 25.2725 7.07362L24.8483 6.89422L24.4359 6.72536L23.9647 6.56707C23.5424 6.42353 23.1093 6.30715 22.6686 6.21881L21.7732 6.04996L20.8306 5.95498C19.9381 5.89231 19.0403 5.92419 18.1561 6.04996C17.7585 6.09651 17.3649 6.16703 16.9779 6.26102C14.4572 6.86322 12.2291 8.1942 10.6397 10.0472C9.05034 11.9002 8.18865 14.1714 8.18851 16.5082V22.9772C8.18273 24.5039 7.54456 25.9742 6.39764 27.1035H6.45655Z" fill="#424242"/>
<path d="M38.8218 35.6833H1.1782C0.865724 35.6833 0.566043 35.5721 0.345087 35.3742C0.124131 35.1763 0 34.9079 0 34.628V28.1589C0 27.879 0.124131 27.6106 0.345087 27.4127C0.566043 27.2147 0.865724 27.1036 1.1782 27.1036H38.8218C39.1343 27.1036 39.434 27.2147 39.6549 27.4127C39.8759 27.6106 40 27.879 40 28.1589V34.628C40 34.9079 39.8759 35.1763 39.6549 35.3742C39.434 35.5721 39.1343 35.6833 38.8218 35.6833ZM2.41532 33.5727H37.6436V29.2142H2.35641L2.41532 33.5727Z" fill="#424242"/>
</svg>
