<svg width="40" height="40" viewBox="0 0 40 40" fill="none" xmlns="http://www.w3.org/2000/svg">
<path d="M20 19.6875C22.1 19.6875 24.1528 19.1102 25.8988 18.0285C27.6449 16.9469 29.0058 15.4095 29.8094 13.6108C30.613 11.8121 30.8233 9.83283 30.4136 7.92333C30.0039 6.01383 28.9927 4.25984 27.5078 2.88317C26.0229 1.5065 24.131 0.568972 22.0714 0.189149C20.0118 -0.190674 17.8769 0.00426516 15.9368 0.749315C13.9967 1.49437 12.3384 2.75606 11.1717 4.37486C10.005 5.99366 9.38232 7.89684 9.38232 9.84375C9.38611 12.4534 10.506 14.9552 12.4964 16.8005C14.4867 18.6458 17.1852 19.684 20 19.6875ZM20 2.93203C21.4741 2.93204 22.915 3.33727 24.1407 4.0965C25.3664 4.85573 26.3217 5.93485 26.8859 7.19743C27.4501 8.46 27.5978 9.84932 27.3103 11.1897C27.0229 12.5301 26.3132 13.7614 25.2709 14.7279C24.2287 15.6943 22.9008 16.3526 21.4551 16.6194C20.0094 16.8862 18.5108 16.7496 17.1488 16.2268C15.7869 15.704 14.6227 14.8186 13.8035 13.6824C12.9843 12.5462 12.5469 11.2104 12.5466 9.84375C12.5495 8.01211 13.3357 6.25628 14.733 4.96133C16.1302 3.66638 18.0243 2.93801 20 2.93594V2.93203Z" fill="#424242"/>
<path d="M3.16683 40C3.16683 31.3945 10.718 24.3937 20 24.3937C29.2821 24.3937 36.8332 31.3945 36.8332 40H40C39.9998 36.3328 38.8268 32.748 36.6291 29.6989C34.4315 26.6498 31.308 24.2733 27.6536 22.8699C23.9992 21.4666 19.978 21.0994 16.0985 21.8148C12.2189 22.5302 8.65537 24.296 5.85832 26.8891C3.99528 28.6068 2.51823 30.65 1.51266 32.9005C0.507087 35.151 -0.00702762 37.5641 7.25501e-05 40H3.16683Z" fill="#424242"/>
</svg>
