<svg width="40" height="40" viewBox="0 0 40 40" fill="none" xmlns="http://www.w3.org/2000/svg">
<path d="M27.4748 9.62825V7.0128H25.0399V4.34614H27.4748V1.33333C27.4748 0.979711 27.6153 0.640573 27.8653 0.390524C28.1154 0.140476 28.4545 0 28.8082 0C29.1618 0 29.5009 0.140476 29.751 0.390524C30.001 0.640573 30.1415 0.979711 30.1415 1.33333V9.62825C30.1415 9.98187 30.001 10.321 29.751 10.5711C29.5009 10.8211 29.1618 10.9616 28.8082 10.9616C28.4545 10.9616 28.1154 10.8211 27.8653 10.5711C27.6153 10.321 27.4748 9.98187 27.4748 9.62825ZM21.7509 10.9616C21.926 10.9616 22.0993 10.9271 22.2611 10.8601C22.4229 10.7931 22.5699 10.6949 22.6937 10.5711C22.8175 10.4473 22.9157 10.3003 22.9827 10.1385C23.0497 9.97674 23.0842 9.80335 23.0842 9.62825V1.33333C23.0842 0.979711 22.9437 0.640573 22.6937 0.390524C22.4436 0.140476 22.1045 0 21.7509 0C21.3972 0 21.0581 0.140476 20.8081 0.390524C20.558 0.640573 20.4175 0.979711 20.4175 1.33333V4.34614H17.9822V7.0128H20.4176V9.62825C20.4175 9.80335 20.452 9.97673 20.519 10.1385C20.586 10.3003 20.6842 10.4473 20.808 10.5711C20.9319 10.6949 21.0788 10.7931 21.2406 10.8601C21.4024 10.9271 21.5758 10.9616 21.7509 10.9616ZM14.6936 10.9616C14.8687 10.9616 15.0421 10.9271 15.2038 10.8601C15.3656 10.7931 15.5126 10.6949 15.6364 10.5711C15.7602 10.4473 15.8584 10.3003 15.9254 10.1385C15.9924 9.97674 16.0269 9.80335 16.0269 9.62825V1.33333C16.0269 0.979711 15.8864 0.640573 15.6364 0.390524C15.3863 0.140476 15.0472 0 14.6936 0C14.34 0 14.0008 0.140476 13.7508 0.390524C13.5007 0.640573 13.3602 0.979711 13.3602 1.33333V4.34614H10.9245V7.0128H13.3602V9.62825C13.3602 9.80335 13.3947 9.97674 13.4617 10.1385C13.5287 10.3003 13.6269 10.4473 13.7507 10.5711C13.8746 10.6949 14.0215 10.7931 14.1833 10.8601C14.3451 10.9271 14.5185 10.9616 14.6936 10.9616ZM40 29.7778C40.0014 31.8643 39.3638 33.9012 38.173 35.6146C36.9822 37.3279 35.2953 38.6356 33.3392 39.3616C31.383 40.0876 29.2515 40.1973 27.2312 39.6758C25.2109 39.1542 23.3987 38.0266 22.0384 36.4444H4.3776C3.21698 36.443 2.10429 35.9814 1.28363 35.1607C0.462964 34.34 0.00133263 33.2272 0 32.0666V8.72895C0.000713901 7.56772 0.462002 6.45418 1.28267 5.63262C2.10334 4.81105 3.21637 4.34855 4.3776 4.34657H6.30294V1.33333C6.30294 0.979711 6.44341 0.640573 6.69346 0.390524C6.94351 0.140476 7.28265 0 7.63627 0C7.98989 0 8.32903 0.140476 8.57908 0.390524C8.82913 0.640573 8.9696 0.979711 8.9696 1.33333V9.62825C8.9696 9.98187 8.82913 10.321 8.57908 10.5711C8.32903 10.8211 7.98989 10.9616 7.63627 10.9616C7.28265 10.9616 6.94351 10.8211 6.69346 10.5711C6.44341 10.321 6.30294 9.98187 6.30294 9.62825V7.01324H4.3776C3.92336 7.01437 3.48811 7.19565 3.16735 7.5173C2.8466 7.83895 2.66653 8.2747 2.66667 8.72895V13.7793H33.7778V8.7283C33.7767 8.27728 33.5985 7.84475 33.2815 7.52387C32.9646 7.20299 32.5343 7.01946 32.0833 7.0128L32.112 4.34614C33.2645 4.36269 34.3643 4.83126 35.1747 5.65091C35.985 6.47055 36.441 7.5757 36.4444 8.7283V22.0384C37.5598 22.996 38.455 24.1834 39.0687 25.5192C39.6824 26.855 40.0001 28.3077 40 29.7778ZM20.3714 33.7778C19.5735 31.9023 19.3545 29.8312 19.7425 27.8303C20.1306 25.8295 21.108 23.9903 22.5492 22.5492C23.9903 21.108 25.8295 20.1306 27.8303 19.7425C29.8312 19.3545 31.9023 19.5735 33.7778 20.3714V16.446H2.66667V32.0666C2.66712 32.5203 2.84751 32.9552 3.16827 33.276C3.48903 33.5968 3.92395 33.7773 4.3776 33.7778H20.3714ZM37.3333 29.7778C37.3333 28.2834 36.8902 26.8226 36.06 25.5801C35.2298 24.3376 34.0498 23.3692 32.6692 22.7973C31.2886 22.2255 29.7694 22.0759 28.3038 22.3674C26.8381 22.6589 25.4919 23.3785 24.4352 24.4352C23.3785 25.4919 22.6589 26.8381 22.3674 28.3038C22.0759 29.7694 22.2255 31.2886 22.7974 32.6692C23.3692 34.0498 24.3376 35.2298 25.5801 36.06C26.8226 36.8902 28.2834 37.3333 29.7778 37.3333C31.7809 37.3311 33.7014 36.5343 35.1179 35.1179C36.5343 33.7014 37.3311 31.7809 37.3333 29.7778ZM28.9045 30.8865L27.082 29.0642L25.1966 30.9496L28.9045 34.6578L36.0503 27.5121L34.1649 25.6263L28.9045 30.8865Z" fill="#424242"/>
</svg>
