<svg width="25" height="25" viewBox="0 0 25 25" fill="none" xmlns="http://www.w3.org/2000/svg">
<path d="M20.2032 17.196C21.7328 14.9191 22.36 12.1544 21.9627 9.44039C21.5653 6.72637 20.1719 4.25747 18.0537 2.5147C15.9356 0.771924 13.2445 -0.119902 10.5048 0.0129698C7.76508 0.145842 5.17295 1.29389 3.2334 3.23346C1.29385 5.17302 0.14582 7.76518 0.0129663 10.5049C-0.119887 13.2446 0.771953 15.9357 2.51474 18.0538C4.25752 20.172 6.72642 21.5654 9.44043 21.9628C12.1544 22.3601 14.9192 21.7328 17.196 20.2032L21.37 24.3772C21.7688 24.776 22.3097 25 22.8736 25C23.4376 25 23.9784 24.776 24.3772 24.3772C24.776 23.9784 25 23.4376 25 22.8736C25 22.3096 24.776 21.7688 24.3772 21.37L20.2032 17.196ZM11.0494 19.5276C9.37261 19.5276 7.73345 19.0303 6.33922 18.0988C4.945 17.1672 3.85833 15.843 3.21665 14.2938C2.57496 12.7447 2.40707 11.04 2.7342 9.39537C3.06134 7.75076 3.86881 6.24009 5.0545 5.0544C6.2402 3.86871 7.75086 3.06124 9.39547 2.73411C11.0401 2.40698 12.7447 2.57488 14.2939 3.21657C15.8431 3.85827 17.1672 4.94494 18.0988 6.33918C19.0304 7.73341 19.5276 9.37258 19.5276 11.0494C19.5251 13.2972 18.631 15.4522 17.0416 17.0416C15.4522 18.631 13.2972 19.5251 11.0494 19.5276Z" fill="white"/>
</svg>
